<svg width="40" height="40" viewBox="0 0 40 40" fill="none" xmlns="http://www.w3.org/2000/svg">
<circle cx="20" cy="20" r="20" fill="#397AD0"/>
<path d="M29 19C29 18.448 28.552 18 28 18L26 18C25.448 18 25 18.448 25 19L25 21C25 21.552 25.448 22 26 22L28 22C28.552 22 29 21.552 29 21L29 19ZM22 19C22 18.448 21.552 18 21 18L19 18C18.448 18 18 18.448 18 19L18 21C18 21.552 18.448 22 19 22L21 22C21.552 22 22 21.552 22 21L22 19ZM15 19C15 18.448 14.552 18 14 18L12 18C11.448 18 11 18.448 11 19L11 21C11 21.552 11.448 22 12 22L14 22C14.552 22 15 21.552 15 21L15 19Z" fill="white"/>
</svg>
