<svg width="14" height="9" viewBox="0 0 14 9" fill="none" xmlns="http://www.w3.org/2000/svg">
<path d="M6.71886 0.230477C5.98449 0.222664 5.35949 0.230477 5.00793 0.402352C4.77355 0.515633 4.59386 0.773446 4.70324 0.785164C4.83996 0.804696 5.14855 0.871102 5.31261 1.09376C5.52355 1.37891 5.51574 2.02345 5.51574 2.02345C5.51574 2.02345 5.63293 3.79688 5.23058 4.01954C4.95324 4.17188 4.57433 3.86329 3.75402 2.45313C3.33605 1.72657 3.01965 0.925789 3.01965 0.925789C3.01965 0.925789 2.96105 0.777352 2.85168 0.699227C2.71887 0.601571 2.53527 0.570321 2.53527 0.570321L0.57824 0.582039C0.57824 0.582039 0.285271 0.593758 0.179803 0.718758C0.0821461 0.835946 0.17199 1.06641 0.17199 1.06641C0.17199 1.06641 1.70324 4.64845 3.43761 6.45313C5.02746 8.10938 6.83215 8.00001 6.83215 8.00001H7.65246C7.65246 8.00001 7.89855 7.97266 8.02355 7.83985C8.14074 7.71485 8.13683 7.48048 8.13683 7.48048C8.13683 7.48048 8.12121 6.38282 8.62902 6.21876C9.13293 6.06251 9.77355 7.28126 10.4571 7.75001C10.9767 8.10548 11.3712 8.02735 11.3712 8.02735L13.1993 8.00001C13.1993 8.00001 14.1525 7.94141 13.6993 7.18751C13.6642 7.12891 13.4376 6.63282 12.3439 5.6172C11.1954 4.5547 11.3478 4.72657 12.7306 2.88673C13.5704 1.76563 13.9064 1.08204 13.8009 0.785164C13.6993 0.507821 13.0821 0.582039 13.0821 0.582039L11.0236 0.593758C11.0236 0.593758 10.8712 0.574227 10.7579 0.640633C10.6486 0.707039 10.5782 0.863289 10.5782 0.863289C10.5782 0.863289 10.2501 1.73048 9.81652 2.46876C8.90246 4.02345 8.53136 4.10938 8.38293 4.01173C8.03527 3.78516 8.12121 3.10548 8.12121 2.62501C8.12121 1.11329 8.35168 0.488289 7.6759 0.324227C7.45324 0.269539 7.28918 0.234383 6.71886 0.230477Z" fill="#333333"/>
</svg>
