<?xml version="1.0" encoding="utf-8"?><svg viewBox="0 0 48 48" xmlns="http://www.w3.org/2000/svg" xmlns:xlink="http://www.w3.org/1999/xlink"><style>:root>svg{display:none}:root>svg:target{display:block}</style><svg fill="none" viewBox="0 0 48 48" id="btn_play" xmlns="http://www.w3.org/2000/svg"><circle cx="24" cy="24" r="24" fill="#2F80ED"/><g clip-path="url(#aclip0)"><path d="M20 18.822v10.357a1 1 0 001.537.844l8.137-5.178a1 1 0 000-1.687l-8.137-5.18a1 1 0 00-1.537.844z" fill="#FFF"/></g><defs><clipPath id="aclip0"><path fill="#fff" d="M12 12h24v24H12z"/></clipPath></defs></svg><svg fill="none" viewBox="0 0 48 48" id="btn_play__active" xmlns="http://www.w3.org/2000/svg"><circle cx="24" cy="24" r="24" fill="#397AD0"/><g clip-path="url(#bclip0)"><path d="M20 18.822v10.357a1 1 0 001.537.844l8.137-5.178a1 1 0 000-1.687l-8.137-5.18a1 1 0 00-1.537.844z" fill="#fff"/></g><defs><clipPath id="bclip0"><path fill="#fff" d="M12 12h24v24H12z"/></clipPath></defs></svg><svg fill="none" viewBox="0 0 48 48" id="btn_play__hover" xmlns="http://www.w3.org/2000/svg"><circle cx="24" cy="24" r="24" fill="#549BFB"/><g clip-path="url(#cclip0)"><path d="M20 18.822v10.357a1 1 0 001.537.844l8.137-5.178a1 1 0 000-1.687l-8.137-5.18a1 1 0 00-1.537.844z" fill="#fff"/></g><defs><clipPath id="cclip0"><path fill="#fff" d="M12 12h24v24H12z"/></clipPath></defs></svg><svg fill="none" viewBox="0 0 40 40" id="btn_with_3dots" xmlns="http://www.w3.org/2000/svg"><circle cx="20" cy="20" r="20" fill="#2F80ED"/><path d="M29 19a1 1 0 00-1-1h-2a1 1 0 00-1 1v2a1 1 0 001 1h2a1 1 0 001-1v-2zm-7 0a1 1 0 00-1-1h-2a1 1 0 00-1 1v2a1 1 0 001 1h2a1 1 0 001-1v-2zm-7 0a1 1 0 00-1-1h-2a1 1 0 00-1 1v2a1 1 0 001 1h2a1 1 0 001-1v-2z" fill="#fff"/></svg><svg fill="none" viewBox="0 0 40 40" id="btn_with_3dots__active" xmlns="http://www.w3.org/2000/svg"><circle cx="20" cy="20" r="20" fill="#397AD0"/><path d="M29 19a1 1 0 00-1-1h-2a1 1 0 00-1 1v2a1 1 0 001 1h2a1 1 0 001-1v-2zm-7 0a1 1 0 00-1-1h-2a1 1 0 00-1 1v2a1 1 0 001 1h2a1 1 0 001-1v-2zm-7 0a1 1 0 00-1-1h-2a1 1 0 00-1 1v2a1 1 0 001 1h2a1 1 0 001-1v-2z" fill="#fff"/></svg><svg fill="none" viewBox="0 0 40 40" id="btn_with_3dots__hover" xmlns="http://www.w3.org/2000/svg"><circle cx="20" cy="20" r="20" fill="#549BFB"/><path d="M29 19a1 1 0 00-1-1h-2a1 1 0 00-1 1v2a1 1 0 001 1h2a1 1 0 001-1v-2zm-7 0a1 1 0 00-1-1h-2a1 1 0 00-1 1v2a1 1 0 001 1h2a1 1 0 001-1v-2zm-7 0a1 1 0 00-1-1h-2a1 1 0 00-1 1v2a1 1 0 001 1h2a1 1 0 001-1v-2z" fill="#fff"/></svg></svg>