<?xml version="1.0" encoding="utf-8"?><svg viewBox="0 0 48 48" xmlns="http://www.w3.org/2000/svg" xmlns:xlink="http://www.w3.org/1999/xlink"><style>:root>svg{display:none}:root>svg:target{display:block}</style><svg fill="none" viewBox="0 0 48 48" id="btn_play" xmlns="http://www.w3.org/2000/svg"><circle cx="24" cy="24" r="24" fill="#2F80ED"/><g clip-path="url(#aclip0)"><path d="M20 18.822v10.357a1 1 0 001.537.844l8.137-5.178a1 1 0 000-1.687l-8.137-5.18a1 1 0 00-1.537.844z" fill="#FFF"/></g><defs><clipPath id="aclip0"><path fill="#fff" d="M12 12h24v24H12z"/></clipPath></defs></svg><svg fill="none" viewBox="0 0 48 48" id="btn_play__active" xmlns="http://www.w3.org/2000/svg"><circle cx="24" cy="24" r="24" fill="#397AD0"/><g clip-path="url(#bclip0)"><path d="M20 18.822v10.357a1 1 0 001.537.844l8.137-5.178a1 1 0 000-1.687l-8.137-5.18a1 1 0 00-1.537.844z" fill="#fff"/></g><defs><clipPath id="bclip0"><path fill="#fff" d="M12 12h24v24H12z"/></clipPath></defs></svg><svg fill="none" viewBox="0 0 48 48" id="btn_play__hover" xmlns="http://www.w3.org/2000/svg"><circle cx="24" cy="24" r="24" fill="#549BFB"/><g clip-path="url(#cclip0)"><path d="M20 18.822v10.357a1 1 0 001.537.844l8.137-5.178a1 1 0 000-1.687l-8.137-5.18a1 1 0 00-1.537.844z" fill="#fff"/></g><defs><clipPath id="cclip0"><path fill="#fff" d="M12 12h24v24H12z"/></clipPath></defs></svg><svg fill="none" viewBox="0 0 40 40" id="btn_with_3dots" xmlns="http://www.w3.org/2000/svg"><circle cx="20" cy="20" r="20" fill="#2F80ED"/><path d="M29 19a1 1 0 00-1-1h-2a1 1 0 00-1 1v2a1 1 0 001 1h2a1 1 0 001-1v-2zm-7 0a1 1 0 00-1-1h-2a1 1 0 00-1 1v2a1 1 0 001 1h2a1 1 0 001-1v-2zm-7 0a1 1 0 00-1-1h-2a1 1 0 00-1 1v2a1 1 0 001 1h2a1 1 0 001-1v-2z" fill="#fff"/></svg><svg fill="none" viewBox="0 0 40 40" id="btn_with_3dots__active" xmlns="http://www.w3.org/2000/svg"><circle cx="20" cy="20" r="20" fill="#397AD0"/><path d="M29 19a1 1 0 00-1-1h-2a1 1 0 00-1 1v2a1 1 0 001 1h2a1 1 0 001-1v-2zm-7 0a1 1 0 00-1-1h-2a1 1 0 00-1 1v2a1 1 0 001 1h2a1 1 0 001-1v-2zm-7 0a1 1 0 00-1-1h-2a1 1 0 00-1 1v2a1 1 0 001 1h2a1 1 0 001-1v-2z" fill="#fff"/></svg><svg fill="none" viewBox="0 0 40 40" id="btn_with_3dots__hover" xmlns="http://www.w3.org/2000/svg"><circle cx="20" cy="20" r="20" fill="#549BFB"/><path d="M29 19a1 1 0 00-1-1h-2a1 1 0 00-1 1v2a1 1 0 001 1h2a1 1 0 001-1v-2zm-7 0a1 1 0 00-1-1h-2a1 1 0 00-1 1v2a1 1 0 001 1h2a1 1 0 001-1v-2zm-7 0a1 1 0 00-1-1h-2a1 1 0 00-1 1v2a1 1 0 001 1h2a1 1 0 001-1v-2z" fill="#fff"/></svg><svg fill="none" viewBox="0 0 7 14" id="icon_fb" xmlns="http://www.w3.org/2000/svg"><path d="M6.366 6.72H4.48V14h-2.8V6.72H0V4.48h1.68V3.13C1.682 1.166 2.498 0 4.813 0H6.72v2.24H5.44c-.9 0-.96.337-.96.965V4.48h2.24l-.354 2.24z" fill="#333"/></svg><svg fill="none" viewBox="0 0 14 9" id="icon_vk" xmlns="http://www.w3.org/2000/svg"><path d="M6.719.23c-.735-.007-1.36 0-1.711.172-.234.114-.414.371-.305.383.137.02.446.086.61.309.21.285.203.93.203.93s.117 1.773-.285 1.996c-.278.152-.657-.157-1.477-1.567C3.336 1.727 3.02.926 3.02.926S2.96.777 2.852.699C2.719.602 2.535.57 2.535.57L.578.582S.285.594.18.719c-.098.117-.008.347-.008.347s1.531 3.582 3.266 5.387C5.028 8.11 6.832 8 6.832 8h.82s.247-.027.372-.16c.117-.125.113-.36.113-.36s-.016-1.097.492-1.261c.504-.156 1.145 1.062 1.828 1.531.52.355.914.277.914.277L13.2 8s.954-.059.5-.812c-.035-.06-.261-.555-1.355-1.57-1.149-1.063-.996-.891.387-2.731.84-1.121 1.175-1.805 1.07-2.102-.102-.277-.719-.203-.719-.203l-2.058.012s-.153-.02-.266.047c-.11.066-.18.222-.18.222s-.328.867-.761 1.606c-.915 1.554-1.286 1.64-1.434 1.543-.348-.227-.262-.907-.262-1.387 0-1.512.23-2.137-.445-2.3C7.453.27 7.289.234 6.719.23z" fill="#333"/></svg></svg>